<?xml version="1.0" encoding="utf-8"?>
<svg version="1.1" xmlns="http://www.w3.org/2000/svg" xmlns:xlink="http://www.w3.org/1999/xlink" x="0px" y="0px"
	 viewBox="0 0 150 150" style="enable-background:new 0 0 150 150;" xml:space="preserve">
<style type="text/css">
	.st0{fill:#1e1e1e;}
</style>
<g>
	<path class="st0" d="M26.44,84.11c-3.77,0-6.84-3.07-6.84-6.84c0-3.77,3.07-6.84,6.84-6.84s6.84,3.07,6.84,6.84
		C33.28,81.05,30.21,84.11,26.44,84.11z M26.44,75c-1.26,0-2.28,1.02-2.28,2.28c0,1.26,1.02,2.28,2.28,2.28s2.28-1.02,2.28-2.28
		C28.72,76.02,27.7,75,26.44,75z"/>
	<rect x="74.29" y="109.18" class="st0" width="4.56" height="13.67"/>
	<path class="st0" d="M103.92,125.13H67.46c-1.26,0-2.28-1.02-2.28-2.28c0-1.26,1.02-2.28,2.28-2.28h36.46
		c1.26,0,2.28,1.02,2.28,2.28C106.19,124.11,105.18,125.13,103.92,125.13z"/>
	<path class="st0" d="M58.34,125.13H42.39c-1.26,0-2.28-1.02-2.28-2.28c0-1.26,1.02-2.28,2.28-2.28h15.95
		c1.26,0,2.28,1.02,2.28,2.28C60.62,124.11,59.6,125.13,58.34,125.13z"/>
	<path class="st0" d="M133.8,102.6l-0.26-0.26v2.28c0,1.26-1.02,2.28-2.28,2.28h-4.59c-0.99,1.01-2.09,2.11-3.23,3.26l-1.29,1.29
		h9.11c1.88,0,3.59-0.77,4.83-2c1.17-1.17,1.61-2.5,1.71-2.84"/>
	<path class="st0" d="M133.68,79.41c1.62-1.62,3.13-3.12,4.41-4.4V45.38c0-3.77-3.07-6.84-6.84-6.84H40.11
		c-3.77,0-6.84,3.07-6.84,6.84v59.25c0,3.77,3.07,6.84,6.84,6.84h59.25l0.73-0.73l3.83-3.83h-63.8c-1.26,0-2.28-1.02-2.28-2.28
		V45.38c0-1.26,1.02-2.28,2.28-2.28h91.15c1.26,0,2.28,1.02,2.28,2.28v34.18L133.68,79.41z"/>
	<path class="st0" d="M42.39,125.13h-31.9c-5.03,0-9.11-4.09-9.11-9.11V33.98c0-5.03,4.09-9.11,9.11-9.11h31.9
		c5.03,0,9.11,4.09,9.11,9.11v6.84h-4.56v-6.84c0-2.51-2.05-4.56-4.56-4.56h-31.9c-2.51,0-4.56,2.05-4.56,4.56v82.03
		c0,2.51,2.05,4.56,4.56,4.56h31.9c2.51,0,4.56-2.05,4.56-4.56v-6.84h4.56v6.84C51.51,121.04,47.42,125.13,42.39,125.13z"/>
	<path class="st0" d="M78.85,40.82h-4.56v-6.84c0-2.51-2.05-4.56-4.56-4.56H42.39v-4.56h27.34c5.03,0,9.11,4.09,9.11,9.11V40.82z"/>
	<path class="st0" d="M12.77,106.9H3.65c-1.26,0-2.28-1.02-2.28-2.28c0-1.26,1.02-2.28,2.28-2.28h9.11c1.26,0,2.28,1.02,2.28,2.28
		C15.05,105.88,14.03,106.9,12.77,106.9z"/>
	<path class="st0" d="M12.77,97.79H3.65c-1.26,0-2.28-1.02-2.28-2.28c0-1.26,1.02-2.28,2.28-2.28h9.11c1.26,0,2.28,1.02,2.28,2.28
		C15.05,96.77,14.03,97.79,12.77,97.79z"/>
	<path class="st0" d="M35.56,52.21H12.77c-1.26,0-2.28-1.02-2.28-2.28s1.02-2.28,2.28-2.28h22.79c1.26,0,2.28,1.02,2.28,2.28
		S36.81,52.21,35.56,52.21z"/>
	<path class="st0" d="M35.56,61.33H12.77c-1.26,0-2.28-1.02-2.28-2.28s1.02-2.28,2.28-2.28h22.79c1.26,0,2.28,1.02,2.28,2.28
		S36.81,61.33,35.56,61.33z"/>
	<g>
		<line class="st0" x1="58.34" y1="54.49" x2="49.23" y2="63.61"/>
		<path class="st0" d="M49.23,65.89c-0.58,0-1.17-0.22-1.61-0.67c-0.89-0.89-0.89-2.33,0-3.22l9.11-9.11c0.89-0.89,2.33-0.89,3.22,0
			c0.89,0.89,0.89,2.33,0,3.22l-9.11,9.11C50.39,65.66,49.81,65.89,49.23,65.89z"/>
	</g>
	<g>
		<line class="st0" x1="72.01" y1="54.49" x2="49.23" y2="77.28"/>
		<path class="st0" d="M49.23,79.56c-0.58,0-1.17-0.22-1.61-0.67c-0.89-0.89-0.89-2.33,0-3.22L70.4,52.88
			c0.89-0.89,2.33-0.89,3.22,0s0.89,2.33,0,3.22L50.84,78.89C50.39,79.33,49.81,79.56,49.23,79.56z"/>
	</g>
	<path class="st0" d="M133.68,83.25l-6.74,6.74c-0.81,0.81-0.81,2.12,0,2.93l6.86,6.86l6.85,6.85c0.81,0.81,2.13,0.81,2.93-0.01
		l2.2-2.23l2.23-2.21c0.81-0.81,0.82-2.12,0.01-2.93l-2.8-2.8c-2.31-2.34-4.24-4.5-4.24-4.8c0-0.34,1.89-2.46,4.16-4.73
		c1.12-1.11,2.13-2.15,2.87-2.95c0.74-0.8,0.74-2.02-0.01-2.82c-1.25-1.33-3.2-3.36-4.53-4.72c-0.8-0.82-2.1-0.83-2.92-0.02
		C139.05,77.9,136.52,80.41,133.68,83.25z"/>
	<path class="st0" d="M107.32,88.91l-2.21,2.21c-0.81,0.81-0.81,2.11,0,2.92l2.89,2.89l3.06,3.33c0.73,0.79,0.73,2,0,2.79
		l-3.06,3.33l-2.89,2.89c-0.81,0.81-0.81,2.11,0,2.92l2.32,2.32l2.32,2.32c0.81,0.81,2.11,0.81,2.92,0l6.67-6.67l6.74-7.06
		c0.77-0.81,0.76-2.08-0.02-2.88l-13.43-13.58c-0.79-0.8-2.08-0.82-2.89-0.04L107.32,88.91z"/>
</g>
</svg>
