<?xml version="1.0" encoding="utf-8"?>
<svg version="1.1" xmlns="http://www.w3.org/2000/svg" xmlns:xlink="http://www.w3.org/1999/xlink" x="0px" y="0px"
	 viewBox="0 0 560 115" style="enable-background:new 0 0 560 115;" xml:space="preserve">
<style type="text/css">
	.st0{fill:#1e1e1e;}
</style>
<g>
	<path class="st0" d="M27.07,67.65c-3.77,0-6.84-3.07-6.84-6.84c0-3.77,3.07-6.84,6.84-6.84s6.84,3.07,6.84,6.84
		C33.9,64.59,30.84,67.65,27.07,67.65z M27.07,58.54c-1.26,0-2.28,1.02-2.28,2.28c0,1.26,1.02,2.28,2.28,2.28s2.28-1.02,2.28-2.28
		C29.34,59.56,28.32,58.54,27.07,58.54z"/>
	<rect x="74.92" y="92.72" class="st0" width="4.56" height="13.67"/>
	<path class="st0" d="M104.54,108.67H68.08c-1.26,0-2.28-1.02-2.28-2.28s1.02-2.28,2.28-2.28h36.46c1.26,0,2.28,1.02,2.28,2.28
		S105.8,108.67,104.54,108.67z"/>
	<path class="st0" d="M58.97,108.67H43.02c-1.26,0-2.28-1.02-2.28-2.28s1.02-2.28,2.28-2.28h15.95c1.26,0,2.28,1.02,2.28,2.28
		S60.23,108.67,58.97,108.67z"/>
	<path class="st0" d="M134.42,86.14l-0.26-0.26v2.28c0,1.26-1.02,2.28-2.28,2.28h-4.59c-0.99,1.01-2.09,2.11-3.23,3.26L122.77,95
		h9.11c1.88,0,3.59-0.77,4.83-2c1.17-1.17,1.61-2.5,1.71-2.84"/>
	<path class="st0" d="M134.31,62.95c1.62-1.62,3.13-3.12,4.41-4.4V28.92c0-3.77-3.07-6.84-6.84-6.84H40.74
		c-3.77,0-6.84,3.07-6.84,6.84v59.25c0,3.77,3.07,6.84,6.84,6.84h59.25l0.73-0.73l3.83-3.83h-63.8c-1.26,0-2.28-1.02-2.28-2.28
		V28.92c0-1.26,1.02-2.28,2.28-2.28h91.15c1.26,0,2.28,1.02,2.28,2.28V63.1L134.31,62.95z"/>
	<path class="st0" d="M43.02,108.67h-31.9c-5.03,0-9.11-4.09-9.11-9.11V17.52c0-5.03,4.09-9.11,9.11-9.11h31.9
		c5.03,0,9.11,4.09,9.11,9.11v6.84h-4.56v-6.84c0-2.51-2.05-4.56-4.56-4.56h-31.9c-2.51,0-4.56,2.05-4.56,4.56v82.03
		c0,2.51,2.05,4.56,4.56,4.56h31.9c2.51,0,4.56-2.05,4.56-4.56v-6.84h4.56v6.84C52.13,104.58,48.04,108.67,43.02,108.67z"/>
	<path class="st0" d="M79.48,24.36h-4.56v-6.84c0-2.51-2.05-4.56-4.56-4.56H43.02V8.41h27.34c5.03,0,9.11,4.09,9.11,9.11V24.36z"/>
	<path class="st0" d="M13.39,90.44H4.28C3.02,90.44,2,89.42,2,88.16c0-1.26,1.02-2.28,2.28-2.28h9.11c1.26,0,2.28,1.02,2.28,2.28
		C15.67,89.42,14.65,90.44,13.39,90.44z"/>
	<path class="st0" d="M13.39,81.33H4.28C3.02,81.33,2,80.31,2,79.05c0-1.26,1.02-2.28,2.28-2.28h9.11c1.26,0,2.28,1.02,2.28,2.28
		C15.67,80.31,14.65,81.33,13.39,81.33z"/>
	<path class="st0" d="M36.18,35.75H13.39c-1.26,0-2.28-1.02-2.28-2.28s1.02-2.28,2.28-2.28h22.79c1.26,0,2.28,1.02,2.28,2.28
		S37.44,35.75,36.18,35.75z"/>
	<path class="st0" d="M36.18,44.87H13.39c-1.26,0-2.28-1.02-2.28-2.28s1.02-2.28,2.28-2.28h22.79c1.26,0,2.28,1.02,2.28,2.28
		S37.44,44.87,36.18,44.87z"/>
	<g>
		<line class="st0" x1="58.97" y1="38.03" x2="49.85" y2="47.15"/>
		<path class="st0" d="M49.85,49.42c-0.58,0-1.17-0.22-1.61-0.67c-0.89-0.89-0.89-2.33,0-3.22l9.11-9.11c0.89-0.89,2.33-0.89,3.22,0
			c0.89,0.89,0.89,2.33,0,3.22l-9.11,9.11C51.02,49.2,50.44,49.42,49.85,49.42z"/>
	</g>
	<g>
		<line class="st0" x1="72.64" y1="38.03" x2="49.85" y2="60.82"/>
		<path class="st0" d="M49.85,63.1c-0.58,0-1.17-0.22-1.61-0.67c-0.89-0.89-0.89-2.33,0-3.22l22.79-22.79
			c0.89-0.89,2.33-0.89,3.22,0s0.89,2.33,0,3.22L51.46,62.43C51.02,62.87,50.44,63.1,49.85,63.1z"/>
	</g>
	<path class="st0" d="M134.31,66.78l-6.74,6.74c-0.81,0.81-0.81,2.12,0,2.93l6.86,6.86l6.85,6.85c0.81,0.81,2.13,0.81,2.93-0.01
		l2.2-2.23l2.23-2.21c0.81-0.81,0.82-2.12,0.01-2.93l-2.8-2.8c-2.31-2.34-4.24-4.5-4.24-4.8c0-0.34,1.89-2.46,4.16-4.73
		c1.12-1.11,2.13-2.15,2.87-2.95c0.74-0.8,0.74-2.02-0.01-2.82c-1.25-1.33-3.2-3.36-4.53-4.72c-0.8-0.82-2.1-0.83-2.92-0.02
		C139.67,61.43,137.15,63.95,134.31,66.78z"/>
	<path class="st0" d="M107.94,72.45l-2.21,2.21c-0.81,0.81-0.81,2.11,0,2.92l2.89,2.89l3.06,3.33c0.73,0.79,0.73,2,0,2.79
		l-3.06,3.33l-2.89,2.89c-0.81,0.81-0.81,2.11,0,2.92l2.32,2.32l2.32,2.32c0.81,0.81,2.11,0.81,2.92,0l6.67-6.67l6.74-7.06
		c0.77-0.81,0.76-2.08-0.02-2.88l-13.43-13.58c-0.79-0.8-2.08-0.82-2.89-0.04L107.94,72.45z"/>
</g>
<g>
	<path class="st0" d="M249.93,34.82h-5.64l-17.84,60.09h-6.05l-17.53-53.32h-0.41l-17.02,53.32h-6.05l-19.07-60.09h-5.64v-6.56
		h23.07v6.56h-9.43l14.05,47.89h0.41l15.38-47.89h-6.67v-6.56h22.97v6.56h-6.67l15.59,48.19h0.41l12.92-48.19h-9.64v-6.56h22.87
		V34.82z"/>
	<path class="st0" d="M287.26,81.78c-0.62,3.9-2.56,7.23-5.84,10c-3.28,2.77-7.73,4.15-13.33,4.15c-6.43,0-11.62-2.02-15.59-6.05
		c-3.97-4.03-5.95-9.74-5.95-17.12c0-7.11,1.88-12.95,5.64-17.53c3.76-4.58,8.85-6.87,15.28-6.87c6.29,0,11.07,1.98,14.36,5.95
		c3.28,3.97,4.96,8.65,5.02,14.05c0,1.78-0.21,3.59-0.62,5.43h-32.1c0.41,10.67,5.23,16,14.46,16c3.62,0,6.46-0.85,8.51-2.56
		c2.05-1.71,3.42-3.96,4.1-6.77L287.26,81.78z M279.26,68.45c0.34-3.42-0.46-6.63-2.41-9.64c-1.95-3.01-5.14-4.51-9.59-4.51
		c-4.24,0-7.35,1.4-9.33,4.2c-1.98,2.8-3.21,6.12-3.69,9.95H279.26z"/>
	<path class="st0" d="M338.63,70.91c0,4.03-0.68,7.96-2.05,11.79c-1.37,3.83-3.56,6.99-6.56,9.48c-3.01,2.5-6.91,3.74-11.69,3.74
		c-7.66,0-12.99-2.87-16-8.61l-1.03,7.59h-7.18c0.27-1.98,0.58-4.14,0.92-6.46c0.34-2.32,0.51-4.61,0.51-6.87V30.2h-7.9v-5.85h15.07
		v34.35c1.37-2.8,3.33-5.23,5.9-7.28s6.03-3.08,10.41-3.08c5.67,0,10.36,1.95,14.05,5.84S338.63,63.67,338.63,70.91z M331.04,71.63
		c0-5.67-1.33-9.95-4-12.82s-5.91-4.31-9.74-4.31c-4.38,0-7.86,1.61-10.46,4.82c-2.6,3.21-3.96,6.5-4.1,9.84v6.87
		c0,3.83,1.35,7.08,4.05,9.74c2.7,2.67,6.03,4,10,4c4.99,0,8.61-1.85,10.87-5.54C329.91,80.55,331.04,76.35,331.04,71.63z"/>
	<path class="st0" d="M421.89,94.91h-13.33l-14.36-27.89h-14.25v21.33h8.92v6.56h-24.92v-6.56h8.41V34.82h-8.41v-6.56h28.81
		c8.27,0,14.18,1.79,17.74,5.38c3.55,3.59,5.33,8.08,5.33,13.48c0,4.31-1.2,8.15-3.59,11.54c-2.39,3.38-5.95,5.69-10.66,6.92
		l11.89,22.76h8.41V94.91z M407.95,47.43c0-4.37-1.27-7.57-3.79-9.59c-2.53-2.02-6.63-3.02-12.3-3.02h-11.9v25.94h12.1
		c5.67,0,9.74-1.18,12.2-3.54C406.72,54.86,407.95,51.6,407.95,47.43z"/>
	<path class="st0" d="M491.11,61.48c0,9.78-2.99,17.79-8.97,24.05c-5.98,6.25-14.24,9.38-24.76,9.38h-30.15v-6.46h8.41V34.71h-8.41
		v-6.46h29.84c10.87,0,19.26,3.13,25.17,9.38C488.15,43.89,491.11,51.84,491.11,61.48z M483.11,61.58c0-8.07-2.24-14.56-6.72-19.48
		c-4.48-4.92-10.96-7.38-19.43-7.38h-13.84v53.73h13.84c8.48,0,14.95-2.41,19.43-7.23C480.87,76.4,483.11,69.85,483.11,61.58z"/>
	<path class="st0" d="M556.63,48.56l-6.67,0.51l-2.05-14.25h-17.23v53.53h11.79v6.56h-30.76v-6.56h11.49V34.82h-17.23l-2.05,14.25
		l-6.56-0.51l1.95-20.3h55.27L556.63,48.56z"/>
</g>
</svg>
